# xmcd
#
# Track frame offsets: 
#        150
#        18052
#        37365
#        59369
#        79575
#        97676
#        114982
#        136020
#        151642
#        165306
#        179511
#        204179
#        221805
#        252573
#        270477
#        287832
#        307190
#
# Disc length: 4548 seconds
#
# Revision: 0
# Processed by: cddbd v1.5.2PL0 Copyright (c) Steve Scherf et al.
# Submitted via: ExactAudioCopy v1.0b4
#
DISCID=e011c211
DTITLE=Allison Moorer - The essential collection CD2
DYEAR=2015
DGENRE=
TTITLE0=Think it over
TTITLE1=Tumbling down
TTITLE2=Cold in California
TTITLE3=Hey Jezebel
TTITLE4=Set you free
TTITLE5=Let go
TTITLE6=Steal the sun
TTITLE7=Up this high
TTITLE8=Easier to forget
TTITLE9=Can't get there from here
TTITLE10=Yessirree
TTITLE11=A soft place to fall
TTITLE12=Dying breed
TTITLE13=Going down
TTITLE14=Send me down an angel
TTITLE15=Tell me baby
TTITLE16=Feeling that feeling again - Cold cold Earth
EXTD=
EXTT0=
EXTT1=
EXTT2=
EXTT3=
EXTT4=
EXTT5=
EXTT6=
EXTT7=
EXTT8=
EXTT9=
EXTT10=
EXTT11=
EXTT12=
EXTT13=
EXTT14=
EXTT15=
EXTT16=
PLAYORDER=
